<svg width="30" height="30" viewBox="0 0 30 30" fill="none" xmlns="http://www.w3.org/2000/svg">
<path d="M12.1 1.90002C7.10001 6.90002 12.7 15.3 19.8 13.5C23.2 12.7 25.5 6.80002 23.8 3.20002C22 -0.39998 15.2 -1.19998 12.1 1.90002ZM15.1 6.50002C14.5 9.90002 14.3 10.2 13.6 8.30002C13.2 7.00002 13.4 5.20002 14 4.00002C15.6 1.00002 15.9 1.80002 15.1 6.50002ZM21.6 7.40002C20.6 11.3 19.5 10.5 19.5 6.00002C19.5 2.70002 19.7 2.30002 20.9 3.50002C21.8 4.30002 22 5.80002 21.6 7.40002Z" fill="white"/>
<path d="M23.9 13.7C23 15.2 21.6 15.4 15.2 15.2C7.8 14.9 7.29999 15 3.69999 18.1C-0.800005 22 -0.900005 23.9 3.19999 27.4C7.2 30.6 8.29999 30.7 10.8 27.5C12.4 25.5 13.7 25 17 25C23.8 25 30 19.8 30 14.1C30 11.4 25.5 11.2 23.9 13.7ZM20.9 18.6C21.1 18.8 19.9 19 18.2 19C16.4 19 15 19.4 15 20C15 20.5 16.9 21 19.3 21.1C25.4 21.2 21 22.8 14.4 22.9C8.5 23 5.79999 21.1 7.99999 18.5C9 17.3 10.5 17.2 14.9 17.6C18 18 20.7 18.4 20.9 18.6ZM6.79999 23.2C7.49999 23.9 7.99999 25 7.99999 25.7C7.99999 26.7 7.39999 26.7 5.49999 25.4C4.09999 24.5 2.99999 23.4 2.99999 22.9C2.99999 21.6 5.39999 21.8 6.79999 23.2Z" fill="white"/>
</svg>
