<svg width="27" height="30" viewBox="0 0 27 30" fill="none" xmlns="http://www.w3.org/2000/svg">
<path d="M6.99999 2C4.59999 4.4 4.39999 8.7 6.49999 11.7C7.89999 13.6 7.79999 13.8 4.99999 14.4C2.99999 14.8 1.59999 15.8 0.99999 17.5C-0.40001 21.1 -0.30001 27.3 1.19999 28.8C2.79999 30.4 23.2 30.4 24.8 28.8C28.4 25.2 24.5 14 19.7 14C18.1 14 17.9 13.7 18.8 12.8C20.7 10.9 20.3 3.6 18.2 1.7C15.6 -0.700001 9.49999 -0.5 6.99999 2ZM16.8 6.9C17.5 11.4 13.3 13.5 9.79999 10.3C7.49999 8.2 7.49999 6.5 10.1 3.9C11.9 2.1 12.4 2 14.3 3.3C15.5 4.1 16.6 5.7 16.8 6.9ZM13 18.4C15.5 18.4 18.2 18.1 19.1 17.7C20.2 17.1 21 17.7 21.8 19.5C24.8 26.1 22.8 28 13 28C3.19999 28 1.39999 26.3 3.99999 19.5C4.79999 17.4 5.39999 17 6.79999 17.6C7.69999 18.1 10.5 18.4 13 18.4Z" fill="white"/>
</svg>
